<?xml version="1.0" encoding="utf-8"?>
<svg xmlns="http://www.w3.org/2000/svg" xmlns:xlink="http://www.w3.org/1999/xlink" width="600" height="400" viewBox="0 0 2400 1600">
<defs>
  <clipPath id="clip460">
    <rect x="0" y="0" width="2400" height="1600"/>
  </clipPath>
</defs>
<path clip-path="url(#clip460)" d="
M0 1600 L2400 1600 L2400 0 L0 0  Z
  " fill="#ffffff" fill-rule="evenodd" fill-opacity="1"/>
<defs>
  <clipPath id="clip461">
    <rect x="480" y="0" width="1681" height="1600"/>
  </clipPath>
</defs>
<path clip-path="url(#clip460)" d="
M181.135 1486.45 L2352.76 1486.45 L2352.76 123.472 L181.135 123.472  Z
  " fill="#ffffff" fill-rule="evenodd" fill-opacity="1"/>
<defs>
  <clipPath id="clip462">
    <rect x="181" y="123" width="2173" height="1364"/>
  </clipPath>
</defs>
<polyline clip-path="url(#clip462)" style="stroke:#000000; stroke-width:2; stroke-opacity:0.1; fill:none" points="
  242.596,1486.45 242.596,123.472 
  "/>
<polyline clip-path="url(#clip462)" style="stroke:#000000; stroke-width:2; stroke-opacity:0.1; fill:none" points="
  652.336,1486.45 652.336,123.472 
  "/>
<polyline clip-path="url(#clip462)" style="stroke:#000000; stroke-width:2; stroke-opacity:0.1; fill:none" points="
  1062.08,1486.45 1062.08,123.472 
  "/>
<polyline clip-path="url(#clip462)" style="stroke:#000000; stroke-width:2; stroke-opacity:0.1; fill:none" points="
  1471.82,1486.45 1471.82,123.472 
  "/>
<polyline clip-path="url(#clip462)" style="stroke:#000000; stroke-width:2; stroke-opacity:0.1; fill:none" points="
  1881.56,1486.45 1881.56,123.472 
  "/>
<polyline clip-path="url(#clip462)" style="stroke:#000000; stroke-width:2; stroke-opacity:0.1; fill:none" points="
  2291.29,1486.45 2291.29,123.472 
  "/>
<polyline clip-path="url(#clip460)" style="stroke:#000000; stroke-width:4; stroke-opacity:1; fill:none" points="
  181.135,1486.45 2352.76,1486.45 
  "/>
<polyline clip-path="url(#clip460)" style="stroke:#000000; stroke-width:4; stroke-opacity:1; fill:none" points="
  242.596,1486.45 242.596,1470.09 
  "/>
<polyline clip-path="url(#clip460)" style="stroke:#000000; stroke-width:4; stroke-opacity:1; fill:none" points="
  652.336,1486.45 652.336,1470.09 
  "/>
<polyline clip-path="url(#clip460)" style="stroke:#000000; stroke-width:4; stroke-opacity:1; fill:none" points="
  1062.08,1486.45 1062.08,1470.09 
  "/>
<polyline clip-path="url(#clip460)" style="stroke:#000000; stroke-width:4; stroke-opacity:1; fill:none" points="
  1471.82,1486.45 1471.82,1470.09 
  "/>
<polyline clip-path="url(#clip460)" style="stroke:#000000; stroke-width:4; stroke-opacity:1; fill:none" points="
  1881.56,1486.45 1881.56,1470.09 
  "/>
<polyline clip-path="url(#clip460)" style="stroke:#000000; stroke-width:4; stroke-opacity:1; fill:none" points="
  2291.29,1486.45 2291.29,1470.09 
  "/>
<path clip-path="url(#clip460)" d="M 0 0 M242.596 1515.64 Q238.985 1515.64 237.156 1519.2 Q235.351 1522.75 235.351 1529.87 Q235.351 1536.98 237.156 1540.55 Q238.985 1544.09 242.596 1544.09 Q246.23 1544.09 248.036 1540.55 Q249.865 1536.98 249.865 1529.87 Q249.865 1522.75 248.036 1519.2 Q246.23 1515.64 242.596 1515.64 M242.596 1511.93 Q248.406 1511.93 251.462 1516.54 Q254.54 1521.12 254.54 1529.87 Q254.54 1538.6 251.462 1543.21 Q248.406 1547.79 242.596 1547.79 Q236.786 1547.79 233.707 1543.21 Q230.652 1538.6 230.652 1529.87 Q230.652 1521.12 233.707 1516.54 Q236.786 1511.93 242.596 1511.93 Z" fill="#000000" fill-rule="evenodd" fill-opacity="1" /><path clip-path="url(#clip460)" d="M 0 0 M615.704 1543.18 L623.343 1543.18 L623.343 1516.82 L615.033 1518.49 L615.033 1514.23 L623.297 1512.56 L627.973 1512.56 L627.973 1543.18 L635.611 1543.18 L635.611 1547.12 L615.704 1547.12 L615.704 1543.18 Z" fill="#000000" fill-rule="evenodd" fill-opacity="1" /><path clip-path="url(#clip460)" d="M 0 0 M650.681 1515.64 Q647.07 1515.64 645.241 1519.2 Q643.435 1522.75 643.435 1529.87 Q643.435 1536.98 645.241 1540.55 Q647.07 1544.09 650.681 1544.09 Q654.315 1544.09 656.121 1540.55 Q657.949 1536.98 657.949 1529.87 Q657.949 1522.75 656.121 1519.2 Q654.315 1515.64 650.681 1515.64 M650.681 1511.93 Q656.491 1511.93 659.546 1516.54 Q662.625 1521.12 662.625 1529.87 Q662.625 1538.6 659.546 1543.21 Q656.491 1547.79 650.681 1547.79 Q644.871 1547.79 641.792 1543.21 Q638.736 1538.6 638.736 1529.87 Q638.736 1521.12 641.792 1516.54 Q644.871 1511.93 650.681 1511.93 Z" fill="#000000" fill-rule="evenodd" fill-opacity="1" /><path clip-path="url(#clip460)" d="M 0 0 M677.695 1515.64 Q674.083 1515.64 672.255 1519.2 Q670.449 1522.75 670.449 1529.87 Q670.449 1536.98 672.255 1540.55 Q674.083 1544.09 677.695 1544.09 Q681.329 1544.09 683.134 1540.55 Q684.963 1536.98 684.963 1529.87 Q684.963 1522.75 683.134 1519.2 Q681.329 1515.64 677.695 1515.64 M677.695 1511.93 Q683.505 1511.93 686.56 1516.54 Q689.639 1521.12 689.639 1529.87 Q689.639 1538.6 686.56 1543.21 Q683.505 1547.79 677.695 1547.79 Q671.884 1547.79 668.806 1543.21 Q665.75 1538.6 665.75 1529.87 Q665.75 1521.12 668.806 1516.54 Q671.884 1511.93 677.695 1511.93 Z" fill="#000000" fill-rule="evenodd" fill-opacity="1" /><path clip-path="url(#clip460)" d="M 0 0 M1029.71 1543.18 L1046.03 1543.18 L1046.03 1547.12 L1024.09 1547.12 L1024.09 1543.18 Q1026.75 1540.43 1031.34 1535.8 Q1035.94 1531.15 1037.12 1529.81 Q1039.37 1527.28 1040.25 1525.55 Q1041.15 1523.79 1041.15 1522.1 Q1041.15 1519.34 1039.21 1517.61 Q1037.28 1515.87 1034.18 1515.87 Q1031.98 1515.87 1029.53 1516.63 Q1027.1 1517.4 1024.32 1518.95 L1024.32 1514.23 Q1027.15 1513.09 1029.6 1512.51 Q1032.05 1511.93 1034.09 1511.93 Q1039.46 1511.93 1042.65 1514.62 Q1045.85 1517.31 1045.85 1521.8 Q1045.85 1523.93 1045.04 1525.85 Q1044.25 1527.74 1042.15 1530.34 Q1041.57 1531.01 1038.46 1534.23 Q1035.36 1537.42 1029.71 1543.18 Z" fill="#000000" fill-rule="evenodd" fill-opacity="1" /><path clip-path="url(#clip460)" d="M 0 0 M1061.1 1515.64 Q1057.49 1515.64 1055.66 1519.2 Q1053.86 1522.75 1053.86 1529.87 Q1053.86 1536.98 1055.66 1540.55 Q1057.49 1544.09 1061.1 1544.09 Q1064.74 1544.09 1066.54 1540.55 Q1068.37 1536.98 1068.37 1529.87 Q1068.37 1522.75 1066.54 1519.2 Q1064.74 1515.64 1061.1 1515.64 M1061.1 1511.93 Q1066.91 1511.93 1069.97 1516.54 Q1073.05 1521.12 1073.05 1529.87 Q1073.05 1538.6 1069.97 1543.21 Q1066.91 1547.79 1061.1 1547.79 Q1055.29 1547.79 1052.21 1543.21 Q1049.16 1538.6 1049.16 1529.87 Q1049.16 1521.12 1052.21 1516.54 Q1055.29 1511.93 1061.1 1511.93 Z" fill="#000000" fill-rule="evenodd" fill-opacity="1" /><path clip-path="url(#clip460)" d="M 0 0 M1088.12 1515.64 Q1084.51 1515.64 1082.68 1519.2 Q1080.87 1522.75 1080.87 1529.87 Q1080.87 1536.98 1082.68 1540.55 Q1084.51 1544.09 1088.12 1544.09 Q1091.75 1544.09 1093.56 1540.55 Q1095.39 1536.98 1095.39 1529.87 Q1095.39 1522.75 1093.56 1519.2 Q1091.75 1515.64 1088.12 1515.64 M1088.12 1511.93 Q1093.93 1511.93 1096.98 1516.54 Q1100.06 1521.12 1100.06 1529.87 Q1100.06 1538.6 1096.98 1543.21 Q1093.93 1547.79 1088.12 1547.79 Q1082.31 1547.79 1079.23 1543.21 Q1076.17 1538.6 1076.17 1529.87 Q1076.17 1521.12 1079.23 1516.54 Q1082.31 1511.93 1088.12 1511.93 Z" fill="#000000" fill-rule="evenodd" fill-opacity="1" /><path clip-path="url(#clip460)" d="M 0 0 M1449.05 1528.49 Q1452.41 1529.2 1454.28 1531.47 Q1456.18 1533.74 1456.18 1537.07 Q1456.18 1542.19 1452.66 1544.99 Q1449.14 1547.79 1442.66 1547.79 Q1440.48 1547.79 1438.17 1547.35 Q1435.88 1546.93 1433.42 1546.08 L1433.42 1541.56 Q1435.37 1542.7 1437.68 1543.28 Q1440 1543.86 1442.52 1543.86 Q1446.92 1543.86 1449.21 1542.12 Q1451.53 1540.38 1451.53 1537.07 Q1451.53 1534.02 1449.37 1532.31 Q1447.24 1530.57 1443.42 1530.57 L1439.4 1530.57 L1439.4 1526.73 L1443.61 1526.73 Q1447.06 1526.73 1448.89 1525.36 Q1450.72 1523.97 1450.72 1521.38 Q1450.72 1518.72 1448.82 1517.31 Q1446.94 1515.87 1443.42 1515.87 Q1441.5 1515.87 1439.3 1516.29 Q1437.1 1516.7 1434.47 1517.58 L1434.47 1513.42 Q1437.13 1512.68 1439.44 1512.31 Q1441.78 1511.93 1443.84 1511.93 Q1449.17 1511.93 1452.27 1514.37 Q1455.37 1516.77 1455.37 1520.89 Q1455.37 1523.76 1453.73 1525.75 Q1452.08 1527.72 1449.05 1528.49 Z" fill="#000000" fill-rule="evenodd" fill-opacity="1" /><path clip-path="url(#clip460)" d="M 0 0 M1471.25 1515.64 Q1467.64 1515.64 1465.81 1519.2 Q1464 1522.75 1464 1529.87 Q1464 1536.98 1465.81 1540.55 Q1467.64 1544.09 1471.25 1544.09 Q1474.88 1544.09 1476.69 1540.55 Q1478.52 1536.98 1478.52 1529.87 Q1478.52 1522.75 1476.69 1519.2 Q1474.88 1515.64 1471.25 1515.64 M1471.25 1511.93 Q1477.06 1511.93 1480.11 1516.54 Q1483.19 1521.12 1483.19 1529.87 Q1483.19 1538.6 1480.11 1543.21 Q1477.06 1547.79 1471.25 1547.79 Q1465.44 1547.79 1462.36 1543.21 Q1459.3 1538.6 1459.3 1529.87 Q1459.3 1521.12 1462.36 1516.54 Q1465.44 1511.93 1471.25 1511.93 Z" fill="#000000" fill-rule="evenodd" fill-opacity="1" /><path clip-path="url(#clip460)" d="M 0 0 M1498.26 1515.64 Q1494.65 1515.64 1492.82 1519.2 Q1491.02 1522.75 1491.02 1529.87 Q1491.02 1536.98 1492.82 1540.55 Q1494.65 1544.09 1498.26 1544.09 Q1501.9 1544.09 1503.7 1540.55 Q1505.53 1536.98 1505.53 1529.87 Q1505.53 1522.75 1503.7 1519.2 Q1501.9 1515.64 1498.26 1515.64 M1498.26 1511.93 Q1504.07 1511.93 1507.13 1516.54 Q1510.21 1521.12 1510.21 1529.87 Q1510.21 1538.6 1507.13 1543.21 Q1504.07 1547.79 1498.26 1547.79 Q1492.45 1547.79 1489.37 1543.21 Q1486.32 1538.6 1486.32 1529.87 Q1486.32 1521.12 1489.37 1516.54 Q1492.45 1511.93 1498.26 1511.93 Z" fill="#000000" fill-rule="evenodd" fill-opacity="1" /><path clip-path="url(#clip460)" d="M 0 0 M1857.55 1516.63 L1845.75 1535.08 L1857.55 1535.08 L1857.55 1516.63 M1856.32 1512.56 L1862.2 1512.56 L1862.2 1535.08 L1867.13 1535.08 L1867.13 1538.97 L1862.2 1538.97 L1862.2 1547.12 L1857.55 1547.12 L1857.55 1538.97 L1841.95 1538.97 L1841.95 1534.46 L1856.32 1512.56 Z" fill="#000000" fill-rule="evenodd" fill-opacity="1" /><path clip-path="url(#clip460)" d="M 0 0 M1882.2 1515.64 Q1878.59 1515.64 1876.76 1519.2 Q1874.96 1522.75 1874.96 1529.87 Q1874.96 1536.98 1876.76 1540.55 Q1878.59 1544.09 1882.2 1544.09 Q1885.84 1544.09 1887.64 1540.55 Q1889.47 1536.98 1889.47 1529.87 Q1889.47 1522.75 1887.64 1519.2 Q1885.84 1515.64 1882.2 1515.64 M1882.2 1511.93 Q1888.01 1511.93 1891.07 1516.54 Q1894.15 1521.12 1894.15 1529.87 Q1894.15 1538.6 1891.07 1543.21 Q1888.01 1547.79 1882.2 1547.79 Q1876.39 1547.79 1873.31 1543.21 Q1870.26 1538.6 1870.26 1529.87 Q1870.26 1521.12 1873.31 1516.54 Q1876.39 1511.93 1882.2 1511.93 Z" fill="#000000" fill-rule="evenodd" fill-opacity="1" /><path clip-path="url(#clip460)" d="M 0 0 M1909.22 1515.64 Q1905.61 1515.64 1903.78 1519.2 Q1901.97 1522.75 1901.97 1529.87 Q1901.97 1536.98 1903.78 1540.55 Q1905.61 1544.09 1909.22 1544.09 Q1912.85 1544.09 1914.66 1540.55 Q1916.49 1536.98 1916.49 1529.87 Q1916.49 1522.75 1914.66 1519.2 Q1912.85 1515.64 1909.22 1515.64 M1909.22 1511.93 Q1915.03 1511.93 1918.08 1516.54 Q1921.16 1521.12 1921.16 1529.87 Q1921.16 1538.6 1918.08 1543.21 Q1915.03 1547.79 1909.22 1547.79 Q1903.41 1547.79 1900.33 1543.21 Q1897.27 1538.6 1897.27 1529.87 Q1897.27 1521.12 1900.33 1516.54 Q1903.41 1511.93 1909.22 1511.93 Z" fill="#000000" fill-rule="evenodd" fill-opacity="1" /><path clip-path="url(#clip460)" d="M 0 0 M2254.56 1512.56 L2272.92 1512.56 L2272.92 1516.5 L2258.84 1516.5 L2258.84 1524.97 Q2259.86 1524.62 2260.88 1524.46 Q2261.9 1524.27 2262.92 1524.27 Q2268.7 1524.27 2272.08 1527.44 Q2275.46 1530.62 2275.46 1536.03 Q2275.46 1541.61 2271.99 1544.71 Q2268.52 1547.79 2262.2 1547.79 Q2260.02 1547.79 2257.75 1547.42 Q2255.51 1547.05 2253.1 1546.31 L2253.1 1541.61 Q2255.18 1542.74 2257.41 1543.3 Q2259.63 1543.86 2262.11 1543.86 Q2266.11 1543.86 2268.45 1541.75 Q2270.79 1539.64 2270.79 1536.03 Q2270.79 1532.42 2268.45 1530.31 Q2266.11 1528.21 2262.11 1528.21 Q2260.23 1528.21 2258.36 1528.62 Q2256.5 1529.04 2254.56 1529.92 L2254.56 1512.56 Z" fill="#000000" fill-rule="evenodd" fill-opacity="1" /><path clip-path="url(#clip460)" d="M 0 0 M2290.53 1515.64 Q2286.92 1515.64 2285.09 1519.2 Q2283.29 1522.75 2283.29 1529.87 Q2283.29 1536.98 2285.09 1540.55 Q2286.92 1544.09 2290.53 1544.09 Q2294.17 1544.09 2295.97 1540.55 Q2297.8 1536.98 2297.8 1529.87 Q2297.8 1522.75 2295.97 1519.2 Q2294.17 1515.64 2290.53 1515.64 M2290.53 1511.93 Q2296.34 1511.93 2299.4 1516.54 Q2302.48 1521.12 2302.48 1529.87 Q2302.48 1538.6 2299.4 1543.21 Q2296.34 1547.79 2290.53 1547.79 Q2284.72 1547.79 2281.64 1543.21 Q2278.59 1538.6 2278.59 1529.87 Q2278.59 1521.12 2281.64 1516.54 Q2284.72 1511.93 2290.53 1511.93 Z" fill="#000000" fill-rule="evenodd" fill-opacity="1" /><path clip-path="url(#clip460)" d="M 0 0 M2317.54 1515.64 Q2313.93 1515.64 2312.11 1519.2 Q2310.3 1522.75 2310.3 1529.87 Q2310.3 1536.98 2312.11 1540.55 Q2313.93 1544.09 2317.54 1544.09 Q2321.18 1544.09 2322.98 1540.55 Q2324.81 1536.98 2324.81 1529.87 Q2324.81 1522.75 2322.98 1519.2 Q2321.18 1515.64 2317.54 1515.64 M2317.54 1511.93 Q2323.35 1511.93 2326.41 1516.54 Q2329.49 1521.12 2329.49 1529.87 Q2329.49 1538.6 2326.41 1543.21 Q2323.35 1547.79 2317.54 1547.79 Q2311.73 1547.79 2308.66 1543.21 Q2305.6 1538.6 2305.6 1529.87 Q2305.6 1521.12 2308.66 1516.54 Q2311.73 1511.93 2317.54 1511.93 Z" fill="#000000" fill-rule="evenodd" fill-opacity="1" /><polyline clip-path="url(#clip462)" style="stroke:#000000; stroke-width:2; stroke-opacity:0.1; fill:none" points="
  181.135,1442.77 2352.76,1442.77 
  "/>
<polyline clip-path="url(#clip462)" style="stroke:#000000; stroke-width:2; stroke-opacity:0.1; fill:none" points="
  181.135,1031.44 2352.76,1031.44 
  "/>
<polyline clip-path="url(#clip462)" style="stroke:#000000; stroke-width:2; stroke-opacity:0.1; fill:none" points="
  181.135,620.107 2352.76,620.107 
  "/>
<polyline clip-path="url(#clip462)" style="stroke:#000000; stroke-width:2; stroke-opacity:0.1; fill:none" points="
  181.135,208.775 2352.76,208.775 
  "/>
<polyline clip-path="url(#clip460)" style="stroke:#000000; stroke-width:4; stroke-opacity:1; fill:none" points="
  181.135,1486.45 181.135,123.472 
  "/>
<polyline clip-path="url(#clip460)" style="stroke:#000000; stroke-width:4; stroke-opacity:1; fill:none" points="
  181.135,1442.77 207.195,1442.77 
  "/>
<polyline clip-path="url(#clip460)" style="stroke:#000000; stroke-width:4; stroke-opacity:1; fill:none" points="
  181.135,1031.44 207.195,1031.44 
  "/>
<polyline clip-path="url(#clip460)" style="stroke:#000000; stroke-width:4; stroke-opacity:1; fill:none" points="
  181.135,620.107 207.195,620.107 
  "/>
<polyline clip-path="url(#clip460)" style="stroke:#000000; stroke-width:4; stroke-opacity:1; fill:none" points="
  181.135,208.775 207.195,208.775 
  "/>
<path clip-path="url(#clip460)" d="M 0 0 M50.9921 1443.22 L80.6679 1443.22 L80.6679 1447.16 L50.9921 1447.16 L50.9921 1443.22 Z" fill="#000000" fill-rule="evenodd" fill-opacity="1" /><path clip-path="url(#clip460)" d="M 0 0 M95.7373 1428.57 Q92.1262 1428.57 90.2975 1432.14 Q88.4919 1435.68 88.4919 1442.81 Q88.4919 1449.91 90.2975 1453.48 Q92.1262 1457.02 95.7373 1457.02 Q99.3715 1457.02 101.177 1453.48 Q103.006 1449.91 103.006 1442.81 Q103.006 1435.68 101.177 1432.14 Q99.3715 1428.57 95.7373 1428.57 M95.7373 1424.87 Q101.547 1424.87 104.603 1429.47 Q107.682 1434.06 107.682 1442.81 Q107.682 1451.53 104.603 1456.14 Q101.547 1460.72 95.7373 1460.72 Q89.9271 1460.72 86.8484 1456.14 Q83.7929 1451.53 83.7929 1442.81 Q83.7929 1434.06 86.8484 1429.47 Q89.9271 1424.87 95.7373 1424.87 Z" fill="#000000" fill-rule="evenodd" fill-opacity="1" /><path clip-path="url(#clip460)" d="M 0 0 M112.751 1454.17 L117.635 1454.17 L117.635 1460.05 L112.751 1460.05 L112.751 1454.17 Z" fill="#000000" fill-rule="evenodd" fill-opacity="1" /><path clip-path="url(#clip460)" d="M 0 0 M135.552 1429.57 L123.746 1448.01 L135.552 1448.01 L135.552 1429.57 M134.325 1425.49 L140.205 1425.49 L140.205 1448.01 L145.135 1448.01 L145.135 1451.9 L140.205 1451.9 L140.205 1460.05 L135.552 1460.05 L135.552 1451.9 L119.95 1451.9 L119.95 1447.39 L134.325 1425.49 Z" fill="#000000" fill-rule="evenodd" fill-opacity="1" /><path clip-path="url(#clip460)" d="M 0 0 M52.1264 1031.89 L81.8021 1031.89 L81.8021 1035.83 L52.1264 1035.83 L52.1264 1031.89 Z" fill="#000000" fill-rule="evenodd" fill-opacity="1" /><path clip-path="url(#clip460)" d="M 0 0 M96.8715 1017.24 Q93.2604 1017.24 91.4317 1020.8 Q89.6262 1024.34 89.6262 1031.47 Q89.6262 1038.58 91.4317 1042.15 Q93.2604 1045.69 96.8715 1045.69 Q100.506 1045.69 102.311 1042.15 Q104.14 1038.58 104.14 1031.47 Q104.14 1024.34 102.311 1020.8 Q100.506 1017.24 96.8715 1017.24 M96.8715 1013.53 Q102.682 1013.53 105.737 1018.14 Q108.816 1022.72 108.816 1031.47 Q108.816 1040.2 105.737 1044.81 Q102.682 1049.39 96.8715 1049.39 Q91.0614 1049.39 87.9827 1044.81 Q84.9271 1040.2 84.9271 1031.47 Q84.9271 1022.72 87.9827 1018.14 Q91.0614 1013.53 96.8715 1013.53 Z" fill="#000000" fill-rule="evenodd" fill-opacity="1" /><path clip-path="url(#clip460)" d="M 0 0 M113.885 1042.84 L118.77 1042.84 L118.77 1048.72 L113.885 1048.72 L113.885 1042.84 Z" fill="#000000" fill-rule="evenodd" fill-opacity="1" /><path clip-path="url(#clip460)" d="M 0 0 M138.006 1030.09 Q141.362 1030.8 143.237 1033.07 Q145.135 1035.34 145.135 1038.67 Q145.135 1043.79 141.617 1046.59 Q138.098 1049.39 131.617 1049.39 Q129.441 1049.39 127.126 1048.95 Q124.834 1048.53 122.381 1047.68 L122.381 1043.16 Q124.325 1044.3 126.64 1044.88 Q128.955 1045.46 131.478 1045.46 Q135.876 1045.46 138.168 1043.72 Q140.482 1041.98 140.482 1038.67 Q140.482 1035.62 138.33 1033.9 Q136.2 1032.17 132.381 1032.17 L128.353 1032.17 L128.353 1028.33 L132.566 1028.33 Q136.015 1028.33 137.844 1026.96 Q139.672 1025.57 139.672 1022.98 Q139.672 1020.32 137.774 1018.9 Q135.899 1017.47 132.381 1017.47 Q130.459 1017.47 128.26 1017.89 Q126.061 1018.3 123.422 1019.18 L123.422 1015.02 Q126.084 1014.28 128.399 1013.9 Q130.737 1013.53 132.797 1013.53 Q138.121 1013.53 141.223 1015.97 Q144.325 1018.37 144.325 1022.49 Q144.325 1025.36 142.681 1027.35 Q141.038 1029.32 138.006 1030.09 Z" fill="#000000" fill-rule="evenodd" fill-opacity="1" /><path clip-path="url(#clip460)" d="M 0 0 M53.0754 620.559 L82.7512 620.559 L82.7512 624.494 L53.0754 624.494 L53.0754 620.559 Z" fill="#000000" fill-rule="evenodd" fill-opacity="1" /><path clip-path="url(#clip460)" d="M 0 0 M97.8206 605.906 Q94.2095 605.906 92.3808 609.471 Q90.5752 613.012 90.5752 620.142 Q90.5752 627.248 92.3808 630.813 Q94.2095 634.355 97.8206 634.355 Q101.455 634.355 103.26 630.813 Q105.089 627.248 105.089 620.142 Q105.089 613.012 103.26 609.471 Q101.455 605.906 97.8206 605.906 M97.8206 602.202 Q103.631 602.202 106.686 606.809 Q109.765 611.392 109.765 620.142 Q109.765 628.869 106.686 633.475 Q103.631 638.059 97.8206 638.059 Q92.0104 638.059 88.9317 633.475 Q85.8762 628.869 85.8762 620.142 Q85.8762 611.392 88.9317 606.809 Q92.0104 602.202 97.8206 602.202 Z" fill="#000000" fill-rule="evenodd" fill-opacity="1" /><path clip-path="url(#clip460)" d="M 0 0 M114.834 631.508 L119.719 631.508 L119.719 637.387 L114.834 637.387 L114.834 631.508 Z" fill="#000000" fill-rule="evenodd" fill-opacity="1" /><path clip-path="url(#clip460)" d="M 0 0 M128.816 633.452 L145.135 633.452 L145.135 637.387 L123.191 637.387 L123.191 633.452 Q125.853 630.698 130.436 626.068 Q135.043 621.415 136.223 620.073 Q138.469 617.549 139.348 615.813 Q140.251 614.054 140.251 612.364 Q140.251 609.61 138.306 607.874 Q136.385 606.137 133.283 606.137 Q131.084 606.137 128.631 606.901 Q126.2 607.665 123.422 609.216 L123.422 604.494 Q126.246 603.36 128.7 602.781 Q131.154 602.202 133.191 602.202 Q138.561 602.202 141.756 604.887 Q144.95 607.573 144.95 612.063 Q144.95 614.193 144.14 616.114 Q143.353 618.012 141.246 620.605 Q140.668 621.276 137.566 624.494 Q134.464 627.688 128.816 633.452 Z" fill="#000000" fill-rule="evenodd" fill-opacity="1" /><path clip-path="url(#clip460)" d="M 0 0 M52.7051 209.226 L82.3808 209.226 L82.3808 213.162 L52.7051 213.162 L52.7051 209.226 Z" fill="#000000" fill-rule="evenodd" fill-opacity="1" /><path clip-path="url(#clip460)" d="M 0 0 M97.4502 194.574 Q93.8391 194.574 92.0104 198.138 Q90.2049 201.68 90.2049 208.81 Q90.2049 215.916 92.0104 219.481 Q93.8391 223.023 97.4502 223.023 Q101.084 223.023 102.89 219.481 Q104.719 215.916 104.719 208.81 Q104.719 201.68 102.89 198.138 Q101.084 194.574 97.4502 194.574 M97.4502 190.87 Q103.26 190.87 106.316 195.476 Q109.395 200.06 109.395 208.81 Q109.395 217.537 106.316 222.143 Q103.26 226.726 97.4502 226.726 Q91.6401 226.726 88.5614 222.143 Q85.5058 217.537 85.5058 208.81 Q85.5058 200.06 88.5614 195.476 Q91.6401 190.87 97.4502 190.87 Z" fill="#000000" fill-rule="evenodd" fill-opacity="1" /><path clip-path="url(#clip460)" d="M 0 0 M114.464 220.175 L119.348 220.175 L119.348 226.055 L114.464 226.055 L114.464 220.175 Z" fill="#000000" fill-rule="evenodd" fill-opacity="1" /><path clip-path="url(#clip460)" d="M 0 0 M125.228 222.12 L132.867 222.12 L132.867 195.754 L124.557 197.421 L124.557 193.162 L132.82 191.495 L137.496 191.495 L137.496 222.12 L145.135 222.12 L145.135 226.055 L125.228 226.055 L125.228 222.12 Z" fill="#000000" fill-rule="evenodd" fill-opacity="1" /><path clip-path="url(#clip460)" d="M 0 0 M1074.2 16.7545 L1074.2 25.383 Q1070.07 21.5346 1065.37 19.6307 Q1060.71 17.7268 1055.45 17.7268 Q1045.08 17.7268 1039.57 24.0867 Q1034.06 30.4061 1034.06 42.3968 Q1034.06 54.3469 1039.57 60.7069 Q1045.08 67.0263 1055.45 67.0263 Q1060.71 67.0263 1065.37 65.1223 Q1070.07 63.2184 1074.2 59.3701 L1074.2 67.9175 Q1069.91 70.8341 1065.09 72.2924 Q1060.31 73.7508 1054.96 73.7508 Q1041.23 73.7508 1033.33 65.3654 Q1025.43 56.9395 1025.43 42.3968 Q1025.43 27.8135 1033.33 19.4281 Q1041.23 11.0023 1054.96 11.0023 Q1060.39 11.0023 1065.17 12.4606 Q1069.99 13.8784 1074.2 16.7545 Z" fill="#000000" fill-rule="evenodd" fill-opacity="1" /><path clip-path="url(#clip460)" d="M 0 0 M1081.25 54.671 L1081.25 27.2059 L1088.71 27.2059 L1088.71 54.3874 Q1088.71 60.8284 1091.22 64.0691 Q1093.73 67.2693 1098.75 67.2693 Q1104.79 67.2693 1108.27 63.421 Q1111.8 59.5726 1111.8 52.9291 L1111.8 27.2059 L1119.25 27.2059 L1119.25 72.576 L1111.8 72.576 L1111.8 65.6084 Q1109.08 69.7404 1105.48 71.7658 Q1101.91 73.7508 1097.17 73.7508 Q1089.35 73.7508 1085.3 68.8897 Q1081.25 64.0286 1081.25 54.671 M1100.01 26.1121 L1100.01 26.1121 Z" fill="#000000" fill-rule="evenodd" fill-opacity="1" /><path clip-path="url(#clip460)" d="M 0 0 M1162.39 35.9153 Q1165.19 30.8922 1169.08 28.5022 Q1172.96 26.1121 1178.23 26.1121 Q1185.32 26.1121 1189.17 31.0947 Q1193.02 36.0368 1193.02 45.1919 L1193.02 72.576 L1185.52 72.576 L1185.52 45.4349 Q1185.52 38.913 1183.21 35.7533 Q1180.9 32.5936 1176.16 32.5936 Q1170.37 32.5936 1167.01 36.4419 Q1163.65 40.2903 1163.65 46.9338 L1163.65 72.576 L1156.15 72.576 L1156.15 45.4349 Q1156.15 38.8725 1153.84 35.7533 Q1151.54 32.5936 1146.71 32.5936 Q1141 32.5936 1137.64 36.4824 Q1134.28 40.3308 1134.28 46.9338 L1134.28 72.576 L1126.78 72.576 L1126.78 27.2059 L1134.28 27.2059 L1134.28 34.2544 Q1136.83 30.082 1140.4 28.0971 Q1143.96 26.1121 1148.86 26.1121 Q1153.8 26.1121 1157.25 28.6237 Q1160.73 31.1352 1162.39 35.9153 Z" fill="#000000" fill-rule="evenodd" fill-opacity="1" /><path clip-path="url(#clip460)" d="M 0 0 M1200.07 54.671 L1200.07 27.2059 L1207.52 27.2059 L1207.52 54.3874 Q1207.52 60.8284 1210.03 64.0691 Q1212.54 67.2693 1217.57 67.2693 Q1223.6 67.2693 1227.08 63.421 Q1230.61 59.5726 1230.61 52.9291 L1230.61 27.2059 L1238.06 27.2059 L1238.06 72.576 L1230.61 72.576 L1230.61 65.6084 Q1227.89 69.7404 1224.29 71.7658 Q1220.72 73.7508 1215.99 73.7508 Q1208.17 73.7508 1204.12 68.8897 Q1200.07 64.0286 1200.07 54.671 M1218.82 26.1121 L1218.82 26.1121 Z" fill="#000000" fill-rule="evenodd" fill-opacity="1" /><path clip-path="url(#clip460)" d="M 0 0 M1245.88 9.54393 L1253.33 9.54393 L1253.33 72.576 L1245.88 72.576 L1245.88 9.54393 Z" fill="#000000" fill-rule="evenodd" fill-opacity="1" /><path clip-path="url(#clip460)" d="M 0 0 M1281.77 49.7694 Q1272.74 49.7694 1269.25 51.8354 Q1265.77 53.9013 1265.77 58.8839 Q1265.77 62.8538 1268.36 65.2034 Q1271 67.5124 1275.49 67.5124 Q1281.69 67.5124 1285.42 63.1374 Q1289.18 58.7219 1289.18 51.4303 L1289.18 49.7694 L1281.77 49.7694 M1296.64 46.6907 L1296.64 72.576 L1289.18 72.576 L1289.18 65.6895 Q1286.63 69.8214 1282.83 71.8063 Q1279.02 73.7508 1273.51 73.7508 Q1266.54 73.7508 1262.41 69.8619 Q1258.32 65.9325 1258.32 59.3701 Q1258.32 51.7138 1263.42 47.825 Q1268.57 43.9361 1278.73 43.9361 L1289.18 43.9361 L1289.18 43.2069 Q1289.18 38.0623 1285.78 35.2672 Q1282.42 32.4315 1276.3 32.4315 Q1272.41 32.4315 1268.73 33.3632 Q1265.04 34.295 1261.64 36.1584 L1261.64 29.2718 Q1265.73 27.692 1269.58 26.9223 Q1273.43 26.1121 1277.07 26.1121 Q1286.92 26.1121 1291.78 31.2163 Q1296.64 36.3204 1296.64 46.6907 Z" fill="#000000" fill-rule="evenodd" fill-opacity="1" /><path clip-path="url(#clip460)" d="M 0 0 M1311.83 14.324 L1311.83 27.2059 L1327.18 27.2059 L1327.18 32.9987 L1311.83 32.9987 L1311.83 57.6282 Q1311.83 63.1779 1313.33 64.7578 Q1314.87 66.3376 1319.53 66.3376 L1327.18 66.3376 L1327.18 72.576 L1319.53 72.576 Q1310.9 72.576 1307.62 69.3758 Q1304.34 66.1351 1304.34 57.6282 L1304.34 32.9987 L1298.87 32.9987 L1298.87 27.2059 L1304.34 27.2059 L1304.34 14.324 L1311.83 14.324 Z" fill="#000000" fill-rule="evenodd" fill-opacity="1" /><path clip-path="url(#clip460)" d="M 0 0 M1335 27.2059 L1342.45 27.2059 L1342.45 72.576 L1335 72.576 L1335 27.2059 M1335 9.54393 L1342.45 9.54393 L1342.45 18.9825 L1335 18.9825 L1335 9.54393 Z" fill="#000000" fill-rule="evenodd" fill-opacity="1" /><path clip-path="url(#clip460)" d="M 0 0 M1344.93 27.2059 L1352.82 27.2059 L1367 65.2844 L1381.18 27.2059 L1389.08 27.2059 L1372.07 72.576 L1361.94 72.576 L1344.93 27.2059 Z" fill="#000000" fill-rule="evenodd" fill-opacity="1" /><path clip-path="url(#clip460)" d="M 0 0 M1435.71 48.0275 L1435.71 51.6733 L1401.44 51.6733 Q1401.92 59.3701 1406.05 63.421 Q1410.23 67.4314 1417.64 67.4314 Q1421.93 67.4314 1425.94 66.3781 Q1429.99 65.3249 1433.96 63.2184 L1433.96 70.267 Q1429.95 71.9684 1425.74 72.8596 Q1421.53 73.7508 1417.19 73.7508 Q1406.34 73.7508 1399.98 67.4314 Q1393.66 61.1119 1393.66 50.3365 Q1393.66 39.1965 1399.65 32.6746 Q1405.69 26.1121 1415.9 26.1121 Q1425.05 26.1121 1430.36 32.0264 Q1435.71 37.9003 1435.71 48.0275 M1428.25 45.84 Q1428.17 39.7232 1424.81 36.0774 Q1421.49 32.4315 1415.98 32.4315 Q1409.74 32.4315 1405.97 35.9558 Q1402.25 39.4801 1401.68 45.8805 L1428.25 45.84 Z" fill="#000000" fill-rule="evenodd" fill-opacity="1" /><path clip-path="url(#clip460)" d="M 0 0 M1507.61 27.2059 L1491.2 49.2833 L1508.46 72.576 L1499.67 72.576 L1486.46 54.752 L1473.26 72.576 L1464.47 72.576 L1482.09 48.8377 L1465.97 27.2059 L1474.76 27.2059 L1486.79 43.369 L1498.82 27.2059 L1507.61 27.2059 Z" fill="#000000" fill-rule="evenodd" fill-opacity="1" /><polyline clip-path="url(#clip462)" style="stroke:#009af9; stroke-width:4; stroke-opacity:1; fill:none" points="
  242.596,162.047 252.84,446.18 263.083,667.572 273.327,840.057 283.57,974.427 293.814,1079.1 304.057,1160.63 314.301,1224.14 324.544,1273.6 334.788,1312.13 
  345.031,1342.13 355.275,1365.5 365.518,1383.7 375.762,1397.88 386.005,1408.92 396.249,1417.52 406.492,1424.21 416.736,1429.43 426.979,1433.49 437.222,1436.65 
  447.466,1439.12 457.709,1441.04 467.953,1442.53 478.196,1443.69 488.44,1444.6 498.683,1445.31 508.927,1445.86 519.17,1446.28 529.414,1446.62 539.657,1446.88 
  549.901,1447.08 560.144,1447.24 570.388,1447.36 580.631,1447.45 590.875,1447.53 601.118,1447.59 611.362,1447.63 621.605,1447.67 631.849,1447.7 642.092,1447.72 
  652.336,1447.73 662.579,1447.75 672.823,1447.76 683.066,1447.76 693.31,1447.77 703.553,1447.78 713.797,1447.78 724.04,1447.78 734.284,1447.78 744.527,1447.79 
  754.771,1447.79 765.014,1447.79 775.258,1447.79 785.501,1447.79 795.745,1447.79 805.988,1447.79 816.232,1447.79 826.475,1447.79 836.719,1447.79 846.962,1447.79 
  857.206,1447.79 867.449,1447.79 877.693,1447.79 887.936,1447.8 898.18,1447.8 908.423,1447.8 918.667,1447.8 928.91,1447.8 939.154,1447.8 949.397,1447.79 
  959.641,1447.79 969.884,1447.79 980.128,1447.79 990.371,1447.79 1000.61,1447.79 1010.86,1447.79 1021.1,1447.79 1031.35,1447.79 1041.59,1447.79 1051.83,1447.79 
  1062.08,1447.79 1072.32,1447.79 1082.56,1447.79 1092.81,1447.79 1103.05,1447.79 1113.29,1447.79 1123.54,1447.79 1133.78,1447.79 1144.02,1447.79 1154.27,1447.79 
  1164.51,1447.79 1174.75,1447.79 1185,1447.79 1195.24,1447.79 1205.48,1447.79 1215.73,1447.79 1225.97,1447.79 1236.22,1447.79 1246.46,1447.79 1256.7,1447.79 
  1266.95,1447.79 1277.19,1447.79 1287.43,1447.79 1297.68,1447.79 1307.92,1447.79 1318.16,1447.79 1328.41,1447.79 1338.65,1447.79 1348.89,1447.79 1359.14,1447.79 
  1369.38,1447.79 1379.62,1447.79 1389.87,1447.79 1400.11,1447.79 1410.35,1447.79 1420.6,1447.79 1430.84,1447.8 1441.08,1447.8 1451.33,1447.8 1461.57,1447.8 
  1471.82,1447.8 1482.06,1447.8 1492.3,1447.8 1502.55,1447.8 1512.79,1447.8 1523.03,1447.8 1533.28,1447.81 1543.52,1447.81 1553.76,1447.81 1564.01,1447.81 
  1574.25,1447.81 1584.49,1447.81 1594.74,1447.81 1604.98,1447.81 1615.22,1447.81 1625.47,1447.81 1635.71,1447.81 1645.95,1447.81 1656.2,1447.81 1666.44,1447.8 
  1676.69,1447.8 1686.93,1447.8 1697.17,1447.8 1707.42,1447.8 1717.66,1447.8 1727.9,1447.8 1738.15,1447.79 1748.39,1447.79 1758.63,1447.79 1768.88,1447.79 
  1779.12,1447.78 1789.36,1447.78 1799.61,1447.78 1809.85,1447.78 1820.09,1447.77 1830.34,1447.77 1840.58,1447.77 1850.82,1447.77 1861.07,1447.77 1871.31,1447.76 
  1881.56,1447.76 1891.8,1447.76 1902.04,1447.76 1912.29,1447.76 1922.53,1447.76 1932.77,1447.76 1943.02,1447.76 1953.26,1447.76 1963.5,1447.76 1973.75,1447.76 
  1983.99,1447.76 1994.23,1447.76 2004.48,1447.76 2014.72,1447.77 2024.96,1447.77 2035.21,1447.77 2045.45,1447.78 2055.69,1447.78 2065.94,1447.78 2076.18,1447.79 
  2086.43,1447.79 2096.67,1447.8 2106.91,1447.8 2117.16,1447.81 2127.4,1447.81 2137.64,1447.82 2147.89,1447.82 2158.13,1447.83 2168.37,1447.84 2178.62,1447.84 
  2188.86,1447.85 2199.1,1447.85 2209.35,1447.86 2219.59,1447.86 2229.83,1447.86 2240.08,1447.87 2250.32,1447.87 2260.56,1447.87 2270.81,1447.87 2281.05,1447.87 
  2291.29,1447.87 
  "/>
<polyline clip-path="url(#clip462)" style="stroke:#e26f46; stroke-width:4; stroke-opacity:1; fill:none" points="
  242.596,162.047 252.84,446.18 263.083,667.572 273.327,840.057 283.57,974.427 293.814,1079.1 304.057,1160.63 314.301,1224.14 324.544,1273.6 334.788,1312.13 
  345.031,1342.13 355.275,1365.5 365.518,1383.71 375.762,1397.88 386.005,1408.92 396.249,1417.52 406.492,1424.22 416.736,1429.43 426.979,1433.49 437.222,1436.66 
  447.466,1439.12 457.709,1441.04 467.953,1442.53 478.196,1443.7 488.44,1444.6 498.683,1445.31 508.927,1445.86 519.17,1446.29 529.414,1446.62 539.657,1446.88 
  549.901,1447.08 560.144,1447.24 570.388,1447.36 580.631,1447.46 590.875,1447.53 601.118,1447.59 611.362,1447.63 621.605,1447.67 631.849,1447.7 642.092,1447.72 
  652.336,1447.73 662.579,1447.75 672.823,1447.76 683.066,1447.77 693.31,1447.77 703.553,1447.78 713.797,1447.78 724.04,1447.78 734.284,1447.79 744.527,1447.79 
  754.771,1447.79 765.014,1447.79 775.258,1447.79 785.501,1447.79 795.745,1447.79 805.988,1447.79 816.232,1447.79 826.475,1447.79 836.719,1447.79 846.962,1447.79 
  857.206,1447.79 867.449,1447.79 877.693,1447.79 887.936,1447.79 898.18,1447.79 908.423,1447.79 918.667,1447.79 928.91,1447.79 939.154,1447.79 949.397,1447.79 
  959.641,1447.79 969.884,1447.79 980.128,1447.79 990.371,1447.79 1000.61,1447.79 1010.86,1447.79 1021.1,1447.79 1031.35,1447.79 1041.59,1447.79 1051.83,1447.79 
  1062.08,1447.79 1072.32,1447.79 1082.56,1447.79 1092.81,1447.79 1103.05,1447.79 1113.29,1447.79 1123.54,1447.79 1133.78,1447.79 1144.02,1447.79 1154.27,1447.79 
  1164.51,1447.79 1174.75,1447.79 1185,1447.79 1195.24,1447.79 1205.48,1447.79 1215.73,1447.79 1225.97,1447.79 1236.22,1447.79 1246.46,1447.79 1256.7,1447.79 
  1266.95,1447.79 1277.19,1447.79 1287.43,1447.79 1297.68,1447.79 1307.92,1447.79 1318.16,1447.79 1328.41,1447.79 1338.65,1447.79 1348.89,1447.79 1359.14,1447.79 
  1369.38,1447.79 1379.62,1447.79 1389.87,1447.79 1400.11,1447.79 1410.35,1447.79 1420.6,1447.79 1430.84,1447.79 1441.08,1447.79 1451.33,1447.79 1461.57,1447.79 
  1471.82,1447.79 1482.06,1447.79 1492.3,1447.79 1502.55,1447.79 1512.79,1447.79 1523.03,1447.79 1533.28,1447.79 1543.52,1447.79 1553.76,1447.79 1564.01,1447.79 
  1574.25,1447.79 1584.49,1447.79 1594.74,1447.79 1604.98,1447.79 1615.22,1447.79 1625.47,1447.79 1635.71,1447.79 1645.95,1447.79 1656.2,1447.79 1666.44,1447.79 
  1676.69,1447.79 1686.93,1447.79 1697.17,1447.79 1707.42,1447.79 1717.66,1447.79 1727.9,1447.79 1738.15,1447.79 1748.39,1447.79 1758.63,1447.79 1768.88,1447.79 
  1779.12,1447.79 1789.36,1447.79 1799.61,1447.79 1809.85,1447.79 1820.09,1447.79 1830.34,1447.79 1840.58,1447.79 1850.82,1447.79 1861.07,1447.79 1871.31,1447.79 
  1881.56,1447.79 1891.8,1447.79 1902.04,1447.79 1912.29,1447.79 1922.53,1447.79 1932.77,1447.79 1943.02,1447.79 1953.26,1447.79 1963.5,1447.79 1973.75,1447.79 
  1983.99,1447.79 1994.23,1447.79 2004.48,1447.79 2014.72,1447.79 2024.96,1447.79 2035.21,1447.79 2045.45,1447.79 2055.69,1447.79 2065.94,1447.79 2076.18,1447.79 
  2086.43,1447.79 2096.67,1447.79 2106.91,1447.79 2117.16,1447.79 2127.4,1447.79 2137.64,1447.79 2147.89,1447.79 2158.13,1447.79 2168.37,1447.79 2178.62,1447.79 
  2188.86,1447.79 2199.1,1447.79 2209.35,1447.79 2219.59,1447.79 2229.83,1447.79 2240.08,1447.79 2250.32,1447.79 2260.56,1447.79 2270.81,1447.79 2281.05,1447.79 
  2291.29,1447.79 
  "/>
<path clip-path="url(#clip460)" d="
M1551.74 350.345 L2280.37 350.345 L2280.37 168.905 L1551.74 168.905  Z
  " fill="#ffffff" fill-rule="evenodd" fill-opacity="1"/>
<polyline clip-path="url(#clip460)" style="stroke:#000000; stroke-width:4; stroke-opacity:1; fill:none" points="
  1551.74,350.345 2280.37,350.345 2280.37,168.905 1551.74,168.905 1551.74,350.345 
  "/>
<polyline clip-path="url(#clip460)" style="stroke:#009af9; stroke-width:4; stroke-opacity:1; fill:none" points="
  1575.87,229.385 1720.65,229.385 
  "/>
<path clip-path="url(#clip460)" d="M 0 0 M1760.61 216.711 L1754.27 233.91 L1766.97 233.91 L1760.61 216.711 M1757.97 212.105 L1763.27 212.105 L1776.44 246.665 L1771.58 246.665 L1768.43 237.799 L1752.85 237.799 L1749.71 246.665 L1744.77 246.665 L1757.97 212.105 Z" fill="#000000" fill-rule="evenodd" fill-opacity="1" /><path clip-path="url(#clip460)" d="M 0 0 M1781.09 212.105 L1788.06 212.105 L1796.88 235.623 L1805.75 212.105 L1812.71 212.105 L1812.71 246.665 L1808.15 246.665 L1808.15 216.318 L1799.24 240.021 L1794.54 240.021 L1785.63 216.318 L1785.63 246.665 L1781.09 246.665 L1781.09 212.105 Z" fill="#000000" fill-rule="evenodd" fill-opacity="1" /><path clip-path="url(#clip460)" d="M 0 0 M1824.75 212.105 L1828.69 212.105 L1816.65 251.063 L1812.71 251.063 L1824.75 212.105 Z" fill="#000000" fill-rule="evenodd" fill-opacity="1" /><path clip-path="url(#clip460)" d="M 0 0 M1838.02 215.947 L1838.02 228.933 L1843.89 228.933 Q1847.16 228.933 1848.94 227.243 Q1850.72 225.554 1850.72 222.429 Q1850.72 219.327 1848.94 217.637 Q1847.16 215.947 1843.89 215.947 L1838.02 215.947 M1833.34 212.105 L1843.89 212.105 Q1849.7 212.105 1852.67 214.744 Q1855.65 217.359 1855.65 222.429 Q1855.65 227.544 1852.67 230.16 Q1849.7 232.776 1843.89 232.776 L1838.02 232.776 L1838.02 246.665 L1833.34 246.665 L1833.34 212.105 Z" fill="#000000" fill-rule="evenodd" fill-opacity="1" /><path clip-path="url(#clip460)" d="M 0 0 M1860.31 212.105 L1880.17 212.105 L1880.17 216.04 L1864.98 216.04 L1864.98 226.225 L1878.69 226.225 L1878.69 230.16 L1864.98 230.16 L1864.98 246.665 L1860.31 246.665 L1860.31 212.105 Z" fill="#000000" fill-rule="evenodd" fill-opacity="1" /><path clip-path="url(#clip460)" d="M 0 0 M1882.04 240.785 L1886.93 240.785 L1886.93 246.665 L1882.04 246.665 L1882.04 240.785 M1882.04 222.151 L1886.93 222.151 L1886.93 228.03 L1882.04 228.03 L1882.04 222.151 Z" fill="#000000" fill-rule="evenodd" fill-opacity="1" /><path clip-path="url(#clip460)" d="M 0 0 M1919.68 210.646 L1919.68 220.206 Q1924.29 220.206 1927.37 223.748 Q1930.54 227.359 1930.54 233.725 Q1930.54 240.091 1927.37 243.702 Q1924.29 247.243 1919.68 247.243 L1919.68 256.526 L1915.45 256.526 L1915.45 247.243 Q1910.84 247.243 1907.74 243.702 Q1904.59 240.091 1904.59 233.725 Q1904.59 227.359 1907.74 223.748 Q1910.84 220.206 1915.45 220.206 L1915.45 210.646 L1919.68 210.646 M1919.68 243.447 Q1922.3 243.447 1924.08 241.063 Q1926.02 238.401 1926.05 233.725 Q1926.07 229.095 1924.08 226.387 Q1922.3 224.003 1919.68 224.003 L1919.68 243.447 M1915.45 243.447 L1915.45 224.003 Q1912.83 224.003 1911.07 226.387 Q1909.06 229.095 1909.08 233.725 Q1909.1 238.401 1911.07 241.063 Q1912.83 243.447 1915.45 243.447 Z" fill="#000000" fill-rule="evenodd" fill-opacity="1" /><path clip-path="url(#clip460)" d="M 0 0 M1935.56 225.137 L1965.24 225.137 L1965.24 229.026 L1935.56 229.026 L1935.56 225.137 M1935.56 234.581 L1965.24 234.581 L1965.24 238.517 L1935.56 238.517 L1935.56 234.581 Z" fill="#000000" fill-rule="evenodd" fill-opacity="1" /><path clip-path="url(#clip460)" d="M 0 0 M1971.12 242.729 L1978.76 242.729 L1978.76 216.364 L1970.45 218.031 L1970.45 213.771 L1978.71 212.105 L1983.38 212.105 L1983.38 242.729 L1991.02 242.729 L1991.02 246.665 L1971.12 246.665 L1971.12 242.729 Z" fill="#000000" fill-rule="evenodd" fill-opacity="1" /><path clip-path="url(#clip460)" d="M 0 0 M1996.09 240.785 L2000.98 240.785 L2000.98 246.665 L1996.09 246.665 L1996.09 240.785 Z" fill="#000000" fill-rule="evenodd" fill-opacity="1" /><path clip-path="url(#clip460)" d="M 0 0 M2016.05 215.183 Q2012.44 215.183 2010.61 218.748 Q2008.8 222.29 2008.8 229.419 Q2008.8 236.526 2010.61 240.091 Q2012.44 243.632 2016.05 243.632 Q2019.68 243.632 2021.49 240.091 Q2023.32 236.526 2023.32 229.419 Q2023.32 222.29 2021.49 218.748 Q2019.68 215.183 2016.05 215.183 M2016.05 211.48 Q2021.86 211.48 2024.91 216.086 Q2027.99 220.669 2027.99 229.419 Q2027.99 238.146 2024.91 242.753 Q2021.86 247.336 2016.05 247.336 Q2010.24 247.336 2007.16 242.753 Q2004.1 238.146 2004.1 229.419 Q2004.1 220.669 2007.16 216.086 Q2010.24 211.48 2016.05 211.48 Z" fill="#000000" fill-rule="evenodd" fill-opacity="1" /><path clip-path="url(#clip460)" d="M 0 0 M2033.87 242.729 L2041.51 242.729 L2041.51 216.364 L2033.2 218.031 L2033.2 213.771 L2041.46 212.105 L2046.14 212.105 L2046.14 242.729 L2053.78 242.729 L2053.78 246.665 L2033.87 246.665 L2033.87 242.729 Z" fill="#000000" fill-rule="evenodd" fill-opacity="1" /><path clip-path="url(#clip460)" d="M 0 0 M2059.33 240.785 L2064.22 240.785 L2064.22 244.767 L2060.42 252.174 L2057.44 252.174 L2059.33 244.767 L2059.33 240.785 Z" fill="#000000" fill-rule="evenodd" fill-opacity="1" /><path clip-path="url(#clip460)" d="M 0 0 M2087.64 224.813 L2093.31 240.831 L2101.42 220.739 L2105.93 220.739 L2095.44 246.665 L2095.44 256.526 L2091.19 256.526 L2091.19 246.665 L2084.38 227.313 Q2083.36 224.396 2081.16 224.396 L2080.03 224.396 L2080.03 220.739 L2081.65 220.739 Q2086.21 220.739 2087.64 224.813 Z" fill="#000000" fill-rule="evenodd" fill-opacity="1" /><path clip-path="url(#clip460)" d="M 0 0 M2110.95 225.137 L2140.63 225.137 L2140.63 229.026 L2110.95 229.026 L2110.95 225.137 M2110.95 234.581 L2140.63 234.581 L2140.63 238.517 L2110.95 238.517 L2110.95 234.581 Z" fill="#000000" fill-rule="evenodd" fill-opacity="1" /><path clip-path="url(#clip460)" d="M 0 0 M2155.7 215.183 Q2152.09 215.183 2150.26 218.748 Q2148.45 222.29 2148.45 229.419 Q2148.45 236.526 2150.26 240.091 Q2152.09 243.632 2155.7 243.632 Q2159.33 243.632 2161.14 240.091 Q2162.97 236.526 2162.97 229.419 Q2162.97 222.29 2161.14 218.748 Q2159.33 215.183 2155.7 215.183 M2155.7 211.48 Q2161.51 211.48 2164.56 216.086 Q2167.64 220.669 2167.64 229.419 Q2167.64 238.146 2164.56 242.753 Q2161.51 247.336 2155.7 247.336 Q2149.89 247.336 2146.81 242.753 Q2143.75 238.146 2143.75 229.419 Q2143.75 220.669 2146.81 216.086 Q2149.89 211.48 2155.7 211.48 Z" fill="#000000" fill-rule="evenodd" fill-opacity="1" /><path clip-path="url(#clip460)" d="M 0 0 M2172.71 240.785 L2177.6 240.785 L2177.6 246.665 L2172.71 246.665 L2172.71 240.785 Z" fill="#000000" fill-rule="evenodd" fill-opacity="1" /><path clip-path="url(#clip460)" d="M 0 0 M2192.67 215.183 Q2189.05 215.183 2187.23 218.748 Q2185.42 222.29 2185.42 229.419 Q2185.42 236.526 2187.23 240.091 Q2189.05 243.632 2192.67 243.632 Q2196.3 243.632 2198.11 240.091 Q2199.93 236.526 2199.93 229.419 Q2199.93 222.29 2198.11 218.748 Q2196.3 215.183 2192.67 215.183 M2192.67 211.48 Q2198.48 211.48 2201.53 216.086 Q2204.61 220.669 2204.61 229.419 Q2204.61 238.146 2201.53 242.753 Q2198.48 247.336 2192.67 247.336 Q2186.86 247.336 2183.78 242.753 Q2180.72 238.146 2180.72 229.419 Q2180.72 220.669 2183.78 216.086 Q2186.86 211.48 2192.67 211.48 Z" fill="#000000" fill-rule="evenodd" fill-opacity="1" /><path clip-path="url(#clip460)" d="M 0 0 M2222.53 216.179 L2210.72 234.628 L2222.53 234.628 L2222.53 216.179 M2221.3 212.105 L2227.18 212.105 L2227.18 234.628 L2232.11 234.628 L2232.11 238.517 L2227.18 238.517 L2227.18 246.665 L2222.53 246.665 L2222.53 238.517 L2206.93 238.517 L2206.93 234.003 L2221.3 212.105 Z" fill="#000000" fill-rule="evenodd" fill-opacity="1" /><polyline clip-path="url(#clip460)" style="stroke:#e26f46; stroke-width:4; stroke-opacity:1; fill:none" points="
  1575.87,289.865 1720.65,289.865 
  "/>
<path clip-path="url(#clip460)" d="M 0 0 M1760.61 277.191 L1754.27 294.39 L1766.97 294.39 L1760.61 277.191 M1757.97 272.585 L1763.27 272.585 L1776.44 307.145 L1771.58 307.145 L1768.43 298.279 L1752.85 298.279 L1749.71 307.145 L1744.77 307.145 L1757.97 272.585 Z" fill="#000000" fill-rule="evenodd" fill-opacity="1" /><path clip-path="url(#clip460)" d="M 0 0 M1781.09 272.585 L1788.06 272.585 L1796.88 296.103 L1805.75 272.585 L1812.71 272.585 L1812.71 307.145 L1808.15 307.145 L1808.15 276.798 L1799.24 300.501 L1794.54 300.501 L1785.63 276.798 L1785.63 307.145 L1781.09 307.145 L1781.09 272.585 Z" fill="#000000" fill-rule="evenodd" fill-opacity="1" /><path clip-path="url(#clip460)" d="M 0 0 M1824.75 272.585 L1828.69 272.585 L1816.65 311.543 L1812.71 311.543 L1824.75 272.585 Z" fill="#000000" fill-rule="evenodd" fill-opacity="1" /><path clip-path="url(#clip460)" d="M 0 0 M1838.02 276.427 L1838.02 289.413 L1843.89 289.413 Q1847.16 289.413 1848.94 287.723 Q1850.72 286.034 1850.72 282.909 Q1850.72 279.807 1848.94 278.117 Q1847.16 276.427 1843.89 276.427 L1838.02 276.427 M1833.34 272.585 L1843.89 272.585 Q1849.7 272.585 1852.67 275.224 Q1855.65 277.839 1855.65 282.909 Q1855.65 288.024 1852.67 290.64 Q1849.7 293.256 1843.89 293.256 L1838.02 293.256 L1838.02 307.145 L1833.34 307.145 L1833.34 272.585 Z" fill="#000000" fill-rule="evenodd" fill-opacity="1" /><path clip-path="url(#clip460)" d="M 0 0 M1860.31 272.585 L1880.17 272.585 L1880.17 276.52 L1864.98 276.52 L1864.98 286.705 L1878.69 286.705 L1878.69 290.64 L1864.98 290.64 L1864.98 307.145 L1860.31 307.145 L1860.31 272.585 Z" fill="#000000" fill-rule="evenodd" fill-opacity="1" /><path clip-path="url(#clip460)" d="M 0 0 M1882.04 301.265 L1886.93 301.265 L1886.93 307.145 L1882.04 307.145 L1882.04 301.265 M1882.04 282.631 L1886.93 282.631 L1886.93 288.51 L1882.04 288.51 L1882.04 282.631 Z" fill="#000000" fill-rule="evenodd" fill-opacity="1" /><path clip-path="url(#clip460)" d="M 0 0 M1919.68 271.126 L1919.68 280.686 Q1924.29 280.686 1927.37 284.228 Q1930.54 287.839 1930.54 294.205 Q1930.54 300.571 1927.37 304.182 Q1924.29 307.723 1919.68 307.723 L1919.68 317.006 L1915.45 317.006 L1915.45 307.723 Q1910.84 307.723 1907.74 304.182 Q1904.59 300.571 1904.59 294.205 Q1904.59 287.839 1907.74 284.228 Q1910.84 280.686 1915.45 280.686 L1915.45 271.126 L1919.68 271.126 M1919.68 303.927 Q1922.3 303.927 1924.08 301.543 Q1926.02 298.881 1926.05 294.205 Q1926.07 289.575 1924.08 286.867 Q1922.3 284.483 1919.68 284.483 L1919.68 303.927 M1915.45 303.927 L1915.45 284.483 Q1912.83 284.483 1911.07 286.867 Q1909.06 289.575 1909.08 294.205 Q1909.1 298.881 1911.07 301.543 Q1912.83 303.927 1915.45 303.927 Z" fill="#000000" fill-rule="evenodd" fill-opacity="1" /><path clip-path="url(#clip460)" d="M 0 0 M1935.56 285.617 L1965.24 285.617 L1965.24 289.506 L1935.56 289.506 L1935.56 285.617 M1935.56 295.061 L1965.24 295.061 L1965.24 298.997 L1935.56 298.997 L1935.56 295.061 Z" fill="#000000" fill-rule="evenodd" fill-opacity="1" /><path clip-path="url(#clip460)" d="M 0 0 M1971.12 303.209 L1978.76 303.209 L1978.76 276.844 L1970.45 278.511 L1970.45 274.251 L1978.71 272.585 L1983.38 272.585 L1983.38 303.209 L1991.02 303.209 L1991.02 307.145 L1971.12 307.145 L1971.12 303.209 Z" fill="#000000" fill-rule="evenodd" fill-opacity="1" /><path clip-path="url(#clip460)" d="M 0 0 M1996.09 301.265 L2000.98 301.265 L2000.98 307.145 L1996.09 307.145 L1996.09 301.265 Z" fill="#000000" fill-rule="evenodd" fill-opacity="1" /><path clip-path="url(#clip460)" d="M 0 0 M2016.05 275.663 Q2012.44 275.663 2010.61 279.228 Q2008.8 282.77 2008.8 289.899 Q2008.8 297.006 2010.61 300.571 Q2012.44 304.112 2016.05 304.112 Q2019.68 304.112 2021.49 300.571 Q2023.32 297.006 2023.32 289.899 Q2023.32 282.77 2021.49 279.228 Q2019.68 275.663 2016.05 275.663 M2016.05 271.96 Q2021.86 271.96 2024.91 276.566 Q2027.99 281.149 2027.99 289.899 Q2027.99 298.626 2024.91 303.233 Q2021.86 307.816 2016.05 307.816 Q2010.24 307.816 2007.16 303.233 Q2004.1 298.626 2004.1 289.899 Q2004.1 281.149 2007.16 276.566 Q2010.24 271.96 2016.05 271.96 Z" fill="#000000" fill-rule="evenodd" fill-opacity="1" /><path clip-path="url(#clip460)" d="M 0 0 M2033.87 303.209 L2041.51 303.209 L2041.51 276.844 L2033.2 278.511 L2033.2 274.251 L2041.46 272.585 L2046.14 272.585 L2046.14 303.209 L2053.78 303.209 L2053.78 307.145 L2033.87 307.145 L2033.87 303.209 Z" fill="#000000" fill-rule="evenodd" fill-opacity="1" /><path clip-path="url(#clip460)" d="M 0 0 M2059.33 301.265 L2064.22 301.265 L2064.22 305.247 L2060.42 312.654 L2057.44 312.654 L2059.33 305.247 L2059.33 301.265 Z" fill="#000000" fill-rule="evenodd" fill-opacity="1" /><path clip-path="url(#clip460)" d="M 0 0 M2087.64 285.293 L2093.31 301.311 L2101.42 281.219 L2105.93 281.219 L2095.44 307.145 L2095.44 317.006 L2091.19 317.006 L2091.19 307.145 L2084.38 287.793 Q2083.36 284.876 2081.16 284.876 L2080.03 284.876 L2080.03 281.219 L2081.65 281.219 Q2086.21 281.219 2087.64 285.293 Z" fill="#000000" fill-rule="evenodd" fill-opacity="1" /><path clip-path="url(#clip460)" d="M 0 0 M2110.95 285.617 L2140.63 285.617 L2140.63 289.506 L2110.95 289.506 L2110.95 285.617 M2110.95 295.061 L2140.63 295.061 L2140.63 298.997 L2110.95 298.997 L2110.95 295.061 Z" fill="#000000" fill-rule="evenodd" fill-opacity="1" /><path clip-path="url(#clip460)" d="M 0 0 M2155.7 275.663 Q2152.09 275.663 2150.26 279.228 Q2148.45 282.77 2148.45 289.899 Q2148.45 297.006 2150.26 300.571 Q2152.09 304.112 2155.7 304.112 Q2159.33 304.112 2161.14 300.571 Q2162.97 297.006 2162.97 289.899 Q2162.97 282.77 2161.14 279.228 Q2159.33 275.663 2155.7 275.663 M2155.7 271.96 Q2161.51 271.96 2164.56 276.566 Q2167.64 281.149 2167.64 289.899 Q2167.64 298.626 2164.56 303.233 Q2161.51 307.816 2155.7 307.816 Q2149.89 307.816 2146.81 303.233 Q2143.75 298.626 2143.75 289.899 Q2143.75 281.149 2146.81 276.566 Q2149.89 271.96 2155.7 271.96 Z" fill="#000000" fill-rule="evenodd" fill-opacity="1" /><path clip-path="url(#clip460)" d="M 0 0 M2172.71 301.265 L2177.6 301.265 L2177.6 307.145 L2172.71 307.145 L2172.71 301.265 Z" fill="#000000" fill-rule="evenodd" fill-opacity="1" /><path clip-path="url(#clip460)" d="M 0 0 M2195.51 276.659 L2183.71 295.108 L2195.51 295.108 L2195.51 276.659 M2194.29 272.585 L2200.17 272.585 L2200.17 295.108 L2205.1 295.108 L2205.1 298.997 L2200.17 298.997 L2200.17 307.145 L2195.51 307.145 L2195.51 298.997 L2179.91 298.997 L2179.91 294.483 L2194.29 272.585 Z" fill="#000000" fill-rule="evenodd" fill-opacity="1" /></svg>
